<svg preserveAspectRatio="none" width="100%" height="100%" overflow="visible" style="display: block;" viewBox="0 0 241.302 224.46" fill="none" xmlns="http://www.w3.org/2000/svg">
<path id="CUPS_&#38;_CAKES_LOGO_2026_UPDATE_16" opacity="0.1047" d="M0 157.826C0 122.57 23.9436 102.517 55.3355 93.7893C47.5675 81.1712 43.0373 69.5258 43.0373 55.9485C43.0373 24.2501 66.9809 0 112.563 0C149.125 0 170.79 20.7059 170.79 49.4862C170.79 78.2665 152.349 93.1497 119.692 99.612C120.318 100.571 121.304 101.544 122.276 102.517L156.88 150.057L158.492 152.656C168.845 141.01 177.905 128.073 183.088 116.427H162.049V88.6194H241.302V116.427H221.888C207.672 137.133 193.108 155.893 175.32 174.334C183.088 182.742 189.537 186.299 197.625 186.299C210.243 186.299 211.536 181.116 211.536 171.096V160.41H241.302V175.613C241.302 209.577 225.792 224.46 190.843 224.46C171.776 224.46 156.573 218.637 139.438 202.781C121.637 215.719 100.931 224.46 77.9734 224.46C24.9297 224.46 0.0133514 195.986 0.0133514 157.826H0ZM120.651 182.409C116.467 177.239 112.243 172.056 108.033 165.913L80.8781 129.045C76.3478 123.223 72.1374 117.72 68.26 112.23C55.3222 120.638 46.2751 133.575 46.2751 151.683C46.2751 176.266 63.0769 192.122 87.9932 192.122C99.6386 192.122 110.644 188.231 120.651 182.422V182.409ZM105.142 81.491C124.861 76.3212 135.88 66.9409 135.88 49.1531C135.88 35.5624 128.432 26.1821 114.202 26.1821C99.9717 26.1821 91.8706 35.2426 91.8706 49.4729C91.8706 61.1183 96.4008 70.1787 105.141 81.491H105.142Z" fill="var(--fill-0, white)"/>
</svg>
