<svg preserveAspectRatio="none" width="100%" height="100%" overflow="visible" style="display: block;" viewBox="0 0 117.423 86.55" fill="none" xmlns="http://www.w3.org/2000/svg">
<g id="CUPS_&#38;_CAKES_LOGO_2026_UPDATE_14">
<path id="Path 5" d="M117.313 30.8392L88.5719 86.0887C88.4256 86.37 88.1332 86.55 87.8125 86.55H29.5932C29.2726 86.55 28.9802 86.37 28.8339 86.0887L0.0983071 30.8392C-0.199792 30.2655 0.216422 29.5849 0.857623 29.5849H13.5184C13.8784 29.5849 14.199 29.36 14.3227 29.0225C20.504 12.1546 38.0413 0 58.7113 0C79.3814 0 96.9186 12.1546 103.089 29.0225C103.212 29.36 103.533 29.5849 103.893 29.5849H116.565C117.206 29.5849 117.622 30.2655 117.324 30.8392H117.313Z" fill="var(--fill-0, white)"/>
<path id="Path 6" d="M31.2305 54.5075C31.2305 46.5207 36.6525 41.9761 43.7675 39.9962C42.007 37.139 40.9834 34.4954 40.9834 31.4188C40.9834 24.2364 46.4054 18.7412 56.7376 18.7412C65.0225 18.7412 69.9328 23.4321 69.9328 29.9565C69.9328 36.4809 65.7537 39.85 58.3575 41.318C58.4981 41.5373 58.7231 41.7567 58.9424 41.9761L66.783 52.747L67.1486 53.3376C69.494 50.6997 71.547 47.7693 72.7225 45.1314H67.9529V38.8319H85.912V45.1314H81.5136C78.2907 49.8223 74.9891 54.0744 70.962 58.2534C72.7225 60.1545 74.1849 60.9644 76.0184 60.9644C78.8757 60.9644 79.1682 59.7889 79.1682 57.5166V55.0981H85.912V58.5459C85.912 66.2402 82.3967 69.6149 74.4773 69.6149C70.1577 69.6149 66.7155 68.2988 62.829 64.7047C58.7962 67.6351 54.1054 69.6149 48.9027 69.6149C36.8831 69.6149 31.2361 63.1636 31.2361 54.5187L31.2305 54.5075ZM58.5712 60.0757C57.6207 58.9058 56.6701 57.7303 55.714 56.3354L49.5608 47.9831C48.5371 46.6669 47.5809 45.4183 46.7035 44.1752C43.7731 46.0763 41.7202 49.0123 41.7202 53.1126C41.7202 58.6809 45.528 62.2749 51.175 62.2749C53.8129 62.2749 56.3045 61.3975 58.5769 60.0757H58.5712ZM55.0559 37.2065C59.5274 36.0366 62.019 33.9105 62.019 29.8777C62.019 26.8011 60.3317 24.675 57.1088 24.675C53.886 24.675 52.0468 26.728 52.0468 29.9508C52.0468 32.5887 53.0704 34.6417 55.0559 37.2065H55.0559Z" fill="var(--fill-0, #EB9CF9)"/>
</g>
</svg>
