<svg preserveAspectRatio="none" width="100%" height="100%" overflow="visible" style="display: block;" viewBox="0 0 44.4826 49.541" fill="none" xmlns="http://www.w3.org/2000/svg">
<g id="C&#38;C_CART_ICON">
<path id="Path 21" d="M42.9457 12.3944L32.7921 31.9126C32.7397 32.0127 32.6365 32.0756 32.5233 32.0756H11.9562C11.843 32.0756 11.7393 32.0127 11.6875 31.9126L1.53645 12.3944C1.43169 12.1927 1.57785 11.9517 1.80522 11.9517H6.27823C6.40553 11.9517 6.51767 11.8716 6.56166 11.7521C8.74474 5.79436 14.9408 1.5 22.2413 1.5C29.5418 1.5 35.7374 5.79436 37.9184 11.7521C37.9619 11.8716 38.0745 11.9517 38.2018 11.9517H42.6774C42.9048 11.9517 43.051 12.1927 42.9462 12.3944L42.9457 12.3944Z" stroke="var(--stroke-0, #87CEFA)" stroke-width="3"/>
<circle id="Ellipse 6" cx="10.8544" cy="44.3925" r="3.64841" stroke="var(--stroke-0, #87CEFA)" stroke-width="3"/>
<circle id="Ellipse 7" cx="33.6933" cy="44.3925" r="3.64841" stroke="var(--stroke-0, #87CEFA)" stroke-width="3"/>
<line id="Line 1" x1="7.10445" y1="34.96" x2="37.241" y2="34.96" stroke="var(--stroke-0, #87CEFA)" stroke-width="3"/>
</g>
</svg>
