<svg preserveAspectRatio="none" width="100%" height="100%" overflow="visible" style="display: block;" viewBox="0 0 55.3949 51.5286" fill="none" xmlns="http://www.w3.org/2000/svg">
<path id="CUPS_&#38;_CAKES_LOGO_2026_UPDATE_15" d="M0 36.2315C0 28.1379 5.49667 23.5344 12.7032 21.5309C10.9199 18.6342 9.87992 15.9608 9.87992 12.8439C9.87992 5.56702 15.3766 0 25.8408 0C34.2341 0 39.2077 4.75338 39.2077 11.3604C39.2077 17.9674 34.9743 21.3841 27.4772 22.8676C27.621 23.0878 27.8473 23.3111 28.0706 23.5344L36.0143 34.4482L36.3845 35.0447C38.7611 32.3713 40.8411 29.4012 42.031 26.7278H37.2012V20.3441H55.3949V26.7278H50.9382C47.6745 31.4812 44.3312 35.788 40.2477 40.0214C42.031 41.9515 43.5115 42.7682 45.3682 42.7682C48.2648 42.7682 48.5615 41.5783 48.5615 39.2781V36.8249H55.3949V40.315C55.3949 48.1119 51.8345 51.5286 43.8112 51.5286C39.4341 51.5286 35.944 50.1919 32.0104 46.5519C27.9238 49.522 23.1704 51.5286 17.9001 51.5286C5.72303 51.5286 0.00306702 44.9919 0.00306702 36.2315H0ZM27.6975 41.875C26.737 40.6882 25.7674 39.4983 24.8008 38.0882L18.5669 29.6245C17.5269 28.2878 16.5604 27.0245 15.6702 25.7643C12.7002 27.6944 10.6232 30.6645 10.6232 34.8214C10.6232 40.4649 14.4804 44.1049 20.2003 44.1049C22.8737 44.1049 25.4003 43.2117 27.6975 41.8781V41.875ZM24.137 18.7076C28.664 17.5208 31.1937 15.3674 31.1937 11.2839C31.1937 8.16395 29.4838 6.01055 26.217 6.01055C22.9502 6.01055 21.0904 8.09053 21.0904 11.3573C21.0904 14.0307 22.1304 16.1107 24.137 18.7076H24.137Z" fill="#FFFFFF"/>
</svg>
