<svg preserveAspectRatio="none" width="100%" height="100%" overflow="visible" style="display: block;" viewBox="0 0 649.814 604.46" fill="none" xmlns="http://www.w3.org/2000/svg">
<path id="CUPS_&#38;_CAKES_LOGO_2026_UPDATE_16" opacity="0.0705229" d="M0 425.016C0 330.074 64.479 276.072 149.016 252.57C128.097 218.59 115.897 187.23 115.897 150.666C115.897 65.3043 180.376 0 303.127 0C401.586 0 459.929 55.7598 459.929 133.264C459.929 210.768 410.269 250.848 322.323 268.25C324.01 270.833 326.665 273.453 329.284 276.072L422.469 404.097L426.81 411.094C454.69 379.734 479.09 344.893 493.048 313.532H436.391V238.648H649.814V313.532H597.535C559.249 369.292 520.031 419.813 472.129 469.473C493.048 492.115 510.414 501.695 532.194 501.695C566.174 501.695 569.655 487.737 569.655 460.754V431.977H649.814V472.918C649.814 564.38 608.048 604.46 513.931 604.46C462.584 604.46 421.643 588.779 375.5 546.08C327.562 580.921 271.802 604.46 209.979 604.46C67.1343 604.46 0.0359535 527.781 0.0359535 425.016H0ZM324.907 491.218C313.64 477.296 302.266 463.338 290.927 446.796L217.801 347.512C205.601 331.832 194.262 317.013 183.821 302.23C148.98 324.871 124.616 359.712 124.616 408.475C124.616 474.676 169.863 517.375 236.961 517.375C268.322 517.375 297.96 506.898 324.907 491.254V491.218ZM283.141 219.451C336.245 205.529 365.919 180.269 365.919 132.367C365.919 95.7677 345.862 70.5072 307.54 70.5072C269.219 70.5072 247.403 94.9066 247.403 133.228C247.403 164.588 259.603 188.988 283.141 219.451H283.141Z" fill="var(--fill-0, white)"/>
</svg>
