<svg preserveAspectRatio="none" width="100%" height="100%" overflow="visible" style="display: block;" viewBox="0 0 75.6944 55.796" fill="none" xmlns="http://www.w3.org/2000/svg">
<g id="Group 21">
<path id="Path 12" d="M75.6281 19.8818L57.0989 55.4986C57.0026 55.6808 56.8151 55.796 56.6088 55.796H19.0766C18.8703 55.796 18.6802 55.6808 18.5864 55.4986L0.0626852 19.8818C-0.1275 19.5148 0.137758 19.0728 0.552981 19.0728H8.71509C8.94824 19.0728 9.15174 18.9255 9.23212 18.7085C13.2154 7.83539 24.5225 0 37.8467 0C51.1708 0 62.4753 7.83539 66.4559 18.7085C66.5363 18.9255 66.7399 19.0728 66.9729 19.0728H75.1404C75.5557 19.0728 75.8235 19.5121 75.6306 19.8818L75.6281 19.8818Z" fill="var(--fill-0, #E4A0F9)"/>
<path id="Path 13" d="M20.1374 35.1374C20.1374 29.9888 23.6332 27.0582 28.2192 25.7831C27.0835 23.9401 26.4218 22.2391 26.4218 20.2541C26.4218 15.6252 29.9176 12.0812 36.577 12.0812C41.9157 12.0812 45.0821 15.1056 45.0821 19.3085C45.0821 23.5115 42.3899 25.6867 37.619 26.6323C37.7101 26.7716 37.8548 26.9162 37.9967 27.0582L43.0516 34.0016L43.2872 34.3793C44.798 32.6782 46.1215 30.787 46.8795 29.0887H43.8071V25.025H55.382V29.0887H52.5477C50.4717 32.113 48.3421 34.8534 45.7464 37.5456C46.8822 38.7724 47.8224 39.2948 49.0037 39.2948C50.8467 39.2948 51.0342 38.5367 51.0342 37.0741V35.5151H55.3819V37.7358C55.3819 42.6968 53.1157 44.8693 48.0099 44.8693C45.2241 44.8693 43.006 44.0201 40.5013 41.703C37.9002 43.5942 34.876 44.8693 31.5222 44.8693C23.7751 44.8693 20.1347 40.7119 20.1347 35.1374H20.1374ZM37.761 38.7296C37.1503 37.9742 36.5342 37.2188 35.918 36.3187L31.9509 30.9317C31.2891 30.0825 30.673 29.2762 30.1078 28.4753C28.2192 29.7021 26.8959 31.5933 26.8959 34.2373C26.8959 37.8295 29.3497 40.144 32.9901 40.144C34.6912 40.144 36.2984 39.5761 37.761 38.7269V38.7296ZM35.4948 23.9857C38.3771 23.2303 39.9843 21.8614 39.9843 19.2603C39.9843 17.2754 38.8969 15.9065 36.8181 15.9065C34.7394 15.9065 33.5553 17.2298 33.5553 19.3085C33.5553 21.0096 34.217 22.3329 35.4948 23.9857Z" fill="var(--fill-0, white)"/>
</g>
</svg>
