<svg preserveAspectRatio="none" width="100%" height="100%" overflow="visible" style="display: block;" viewBox="0 0 141.277 141.276" fill="none" xmlns="http://www.w3.org/2000/svg">
<path id="Path 18" d="M124.721 0H16.5561C7.4273 0 0 7.42681 0 16.5556V124.72C0 133.849 7.4273 141.276 16.5561 141.276H124.721C133.85 141.276 141.277 133.849 141.277 124.72V16.5556C141.277 7.42681 133.85 0 124.721 0V0ZM130.24 124.72C130.24 127.763 127.764 130.239 124.721 130.239H93.265V85.2622H110.315L113.132 68.1545H93.265V56.2898C93.265 51.6059 96.8591 48.0118 101.543 48.0118H112.856V30.9042H101.543C87.4917 30.9042 76.1633 42.286 76.1633 56.3378V68.1545H59.6012V85.2622H76.1633V130.239H16.5561C13.5132 130.239 11.0376 127.763 11.0376 124.72V16.5556C11.0376 13.5126 13.5132 11.037 16.5561 11.037H124.721C127.764 11.037 130.24 13.5126 130.24 16.5556V124.72Z" fill="var(--fill-0, #87CEFA)"/>
</svg>
