<svg preserveAspectRatio="none" width="100%" height="100%" overflow="visible" style="display: block;" viewBox="0 0 117.896 109.667" fill="none" xmlns="http://www.w3.org/2000/svg">
<g id="Group 23">
<path id="CUPS_&#38;_CAKES_LOGO_2026_UPDATE_16" d="M28.916 66.1693C28.916 57.4044 34.8686 52.4191 42.6729 50.2494C40.7417 47.1124 39.6154 44.2173 39.6154 40.8419C39.6154 32.9614 45.568 26.9326 56.9002 26.9326C65.9897 26.9326 71.3758 32.0803 71.3758 39.2353C71.3758 46.3903 66.7913 50.0904 58.6723 51.6969C58.828 51.9355 59.0732 52.1773 59.315 52.4191L67.9176 64.2381L68.3184 64.8841C70.8922 61.9889 73.1447 58.7725 74.4333 55.8773H69.2028V48.9641H88.9057V55.8773H84.0794C80.5449 61.025 76.9243 65.689 72.5021 70.2735C74.4333 72.3637 76.0366 73.2481 78.0473 73.2481C81.1842 73.2481 81.5055 71.9596 81.5055 69.4686V66.812H88.9057V70.5915C88.9057 79.0351 85.0499 82.7352 76.3612 82.7352C71.621 82.7352 67.8414 81.2876 63.5815 77.3458C59.156 80.5622 54.0083 82.7352 48.3009 82.7352C35.1137 82.7352 28.9193 75.6564 28.9193 66.1693H28.916ZM58.9109 72.2809C57.8707 70.9956 56.8207 69.7071 55.7739 68.18L49.023 59.0143C47.8967 57.5667 46.85 56.1987 45.8861 54.8339C42.6696 56.9241 40.4204 60.1405 40.4204 64.6422C40.4204 70.7538 44.5975 74.6957 50.7919 74.6957C53.687 74.6957 56.4232 73.7285 58.9109 72.2842V72.2809ZM55.0551 47.1919C59.9576 45.9067 62.6971 43.5747 62.6971 39.1525C62.6971 35.7737 60.8454 33.4417 57.3076 33.4417C53.7698 33.4417 51.7558 35.6942 51.7558 39.232C51.7558 42.1271 52.8821 44.3796 55.0551 47.1919Z" fill="var(--fill-0, white)"/>
<path id="CUPS_&#38;_CAKES_LOGO_2026_UPDATE_16_2" opacity="0.15" d="M0 77.1109C0 59.8854 11.6985 50.0879 27.036 45.8239C23.2407 39.6589 21.0273 33.9691 21.0273 27.3355C21.0273 11.8482 32.7258 0 54.9965 0C72.86 0 83.4452 10.1165 83.4452 24.1781C83.4452 38.2397 74.4354 45.5114 58.4794 48.6687C58.7854 49.1374 59.2671 49.6126 59.7423 50.0879L76.6488 73.3156L77.4365 74.585C82.4948 68.8952 86.9216 62.574 89.4539 56.8843H79.1747V43.298H117.896V56.8843H108.411C101.465 67.0008 94.3495 76.1669 85.6586 85.1767C89.4539 89.2845 92.6048 91.0227 96.5564 91.0227C102.721 91.0227 103.353 88.4903 103.353 83.5948V78.3738H117.896V85.8017C117.896 102.396 110.319 109.667 93.2428 109.667C83.927 109.667 76.4991 106.822 68.1272 99.0756C59.4299 105.397 49.3133 109.667 38.0966 109.667C12.1802 109.667 0.00651169 95.7555 0.00651169 77.1109H0ZM58.9481 89.1218C56.904 86.5959 54.8403 84.0636 52.7831 81.0624L39.5157 63.0493C37.3023 60.2045 35.2451 57.5158 33.3508 54.8337C27.0296 58.9415 22.6093 65.2627 22.6093 74.1098C22.6093 86.1207 30.8184 93.8676 42.9921 93.8676C48.6818 93.8676 54.0591 91.9667 58.9481 89.1284V89.1218ZM51.3704 39.8151C61.0052 37.2892 66.389 32.7062 66.389 24.0154C66.389 17.3752 62.7499 12.7921 55.7972 12.7921C48.8446 12.7921 44.8865 17.219 44.8865 24.1716C44.8865 29.8614 47.0999 34.2882 51.3704 39.8151Z" fill="var(--fill-0, white)"/>
</g>
</svg>
