<svg preserveAspectRatio="none" width="100%" height="100%" overflow="visible" style="display: block;" viewBox="0 0 160.954 49.7995" fill="none" xmlns="http://www.w3.org/2000/svg">
<g id="Group 48">
<g id="Group 46">
<path id="Path 14" d="M146.488 0H125.62C117.644 0 111.154 6.48946 111.154 14.466V35.3335C111.154 43.3101 117.644 49.7995 125.62 49.7995H146.488C154.465 49.7995 160.954 43.3101 160.954 35.3337V14.466C160.954 6.48946 154.465 0 146.488 0ZM157.063 35.3335C157.063 41.1648 152.319 45.9089 146.488 45.9089H125.62C119.789 45.9089 115.045 41.1648 115.045 35.3337V14.466C115.045 8.63469 119.789 3.89062 125.62 3.89062H146.488C152.319 3.89062 157.063 8.63469 157.063 14.466V35.3335Z" fill="var(--fill-0, white)"/>
<path id="Path 15" d="M136.054 11.4771C128.653 11.4771 122.632 17.4983 122.632 24.8995C122.632 32.3009 128.653 38.3221 136.054 38.3221C143.456 38.3221 149.477 32.3009 149.477 24.8995C149.477 17.4983 143.456 11.4771 136.054 11.4771V11.4771ZM136.054 34.4315C130.798 34.4315 126.522 30.1555 126.522 24.8995C126.522 19.6437 130.798 15.3677 136.054 15.3677C141.31 15.3677 145.586 19.6437 145.586 24.8995C145.586 30.1555 141.31 34.4315 136.054 34.4315Z" fill="var(--fill-0, white)"/>
<path id="Path 16" d="M149.173 7.81104C150.247 7.81104 151.118 8.68203 151.118 9.75627C151.118 10.8307 150.247 11.7017 149.173 11.7017C148.098 11.7017 147.228 10.8307 147.228 9.75627C147.228 8.68203 148.098 7.81104 149.173 7.81104Z" fill="var(--fill-0, white)"/>
</g>
<path id="Path 18" d="M43.8971 0.0756836H5.8271C2.61412 0.0756836 0 2.68963 0 5.9026V43.9724C0 47.1854 2.61412 49.7995 5.8271 49.7995H43.8971C47.1101 49.7995 49.724 47.1854 49.724 43.9724V5.9026C49.724 2.68963 47.1101 0.0756836 43.8971 0.0756836V0.0756836ZM45.8394 43.9724C45.8394 45.0434 44.9681 45.9147 43.8971 45.9147H32.8257V30.0847H38.8266L39.8182 24.0634H32.8257V19.8875C32.8257 18.239 34.0907 16.974 35.7392 16.974H39.721V10.9528H35.7392C30.7937 10.9528 26.8065 14.9587 26.8065 19.9044V24.0634H20.9773V30.0847H26.8065V45.9147H5.8271C4.75611 45.9147 3.88479 45.0434 3.88479 43.9724V5.9026C3.88479 4.83161 4.75611 3.96029 5.8271 3.96029H43.8971C44.9681 3.96029 45.8394 4.83161 45.8394 5.9026V43.9724Z" fill="var(--fill-0, white)"/>
</g>
</svg>
