<svg preserveAspectRatio="none" width="100%" height="100%" overflow="visible" style="display: block;" viewBox="0 0 111.961 36" fill="none" xmlns="http://www.w3.org/2000/svg">
<g id="Group 49">
<g id="Group 45">
<path id="Path 14" d="M101.504 0H86.4184C80.6521 0 75.9609 4.69122 75.9609 10.4574V25.5426C75.9609 31.3088 80.6521 36 86.4184 36H101.504C107.27 36 111.961 31.3088 111.961 25.5427V10.4574C111.961 4.69122 107.27 0 101.504 0ZM109.148 25.5426C109.148 29.758 105.719 33.1875 101.504 33.1875H86.4184C82.2029 33.1875 78.7735 29.758 78.7735 25.5427V10.4574C78.7735 6.242 82.2029 2.81252 86.4184 2.81252H101.504C105.719 2.81252 109.148 6.242 109.148 10.4574V25.5426Z" fill="var(--fill-0, #87CEFA)"/>
<path id="Path 15" d="M93.961 8.29687C88.6107 8.29687 84.2579 12.6496 84.2579 17.9999C84.2579 23.3504 88.6107 27.7031 93.961 27.7031C99.3113 27.7031 103.664 23.3504 103.664 17.9999C103.664 12.6496 99.3113 8.29687 93.961 8.29687V8.29687ZM93.961 24.8906C90.1616 24.8906 87.0704 21.7995 87.0704 17.9999C87.0704 14.2005 90.1616 11.1094 93.961 11.1094C97.7605 11.1094 100.852 14.2005 100.852 17.9999C100.852 21.7995 97.7605 24.8906 93.961 24.8906Z" fill="var(--fill-0, #87CEFA)"/>
<path id="Path 16" d="M103.444 5.64665C104.221 5.64665 104.851 6.27629 104.851 7.05286C104.851 7.82954 104.221 8.45918 103.444 8.45918C102.668 8.45918 102.038 7.82954 102.038 7.05286C102.038 6.27629 102.668 5.64665 103.444 5.64665Z" fill="var(--fill-0, #87CEFA)"/>
</g>
<path id="Path 17" d="M31.733 0.0546875H4.21238C1.88974 0.0546875 0 1.94431 0 4.26695V31.7876C0 34.1102 1.88974 35.9999 4.21238 35.9999H31.733C34.0556 35.9999 35.9453 34.1102 35.9453 31.7876V4.26695C35.9453 1.94431 34.0556 0.0546875 31.733 0.0546875V0.0546875ZM33.1371 31.7876C33.1371 32.5618 32.5072 33.1917 31.733 33.1917H23.7295V21.7481H28.0676L28.7843 17.3954H23.7295V14.3766C23.7295 13.1849 24.644 12.2704 25.8357 12.2704H28.7141V7.9177H25.8357C22.2606 7.9177 19.3783 10.8136 19.3783 14.3888V17.3954H15.1644V21.7481H19.3783V33.1917H4.21238C3.43817 33.1917 2.8083 32.5618 2.8083 31.7876V4.26695C2.8083 3.49274 3.43817 2.86286 4.21238 2.86286H31.733C32.5072 2.86286 33.1371 3.49274 33.1371 4.26695V31.7876Z" fill="var(--fill-0, #87CEFA)"/>
</g>
</svg>
