<svg preserveAspectRatio="none" width="100%" height="100%" overflow="visible" style="display: block;" viewBox="0 0 117.205 86.3892" fill="none" xmlns="http://www.w3.org/2000/svg">
<g id="CUPS_&#38;_CAKES_LOGO_2026_UPDATE_14">
<path id="Path 5" d="M117.095 30.7819L88.4073 85.9288C88.2613 86.2095 87.9694 86.3892 87.6494 86.3892H29.5383C29.2183 86.3892 28.9263 86.2095 28.7804 85.9288L0.098125 30.7819C-0.199421 30.2093 0.216018 29.53 0.856021 29.53H13.4933C13.8526 29.53 14.1726 29.3054 14.2961 28.9686C20.466 12.132 37.9706 0 58.6023 0C67.1025 0 75.072 2.05933 82.2134 5.80528C91.7318 10.7953 99.2759 19.0687 102.897 28.9686C103.021 29.3054 103.341 29.53 103.7 29.53H116.349C116.988 29.53 117.404 30.2093 117.106 30.7819H117.095Z" fill="var(--fill-0, white)"/>
<path id="Path 6" d="M31.1719 54.4059C31.1719 46.4339 36.5838 41.8978 43.6856 39.9216C41.9284 37.0696 40.9067 34.431 40.9067 31.3601C40.9067 24.191 46.3186 18.7061 56.6317 18.7061C64.9012 18.7061 69.8022 23.3882 69.8022 29.9005C69.8022 36.4128 65.631 39.7756 58.2485 41.2409C58.3889 41.4598 58.6134 41.6788 58.8324 41.8978L66.6584 52.6487L67.0233 53.2381C69.3643 50.6051 71.4135 47.6802 72.5868 45.0472H67.8261V38.7595H85.7518V45.0472H81.3616C78.1447 49.7294 74.8493 53.9736 70.8296 58.1449C72.5868 60.0424 74.0465 60.8508 75.8766 60.8508C78.7286 60.8508 79.0205 59.6775 79.0205 57.4094V54.9953H85.7518V58.4368C85.7518 66.1168 82.243 69.4853 74.3384 69.4853C70.0268 69.4853 66.591 68.1716 62.7117 64.5842C58.6864 67.5091 54.0043 69.4853 48.8113 69.4853C36.814 69.4853 31.1775 63.0459 31.1775 54.4171L31.1719 54.4059ZM58.4618 59.9638C57.5131 58.796 56.5643 57.6227 55.6099 56.2304L49.4681 47.8936C48.4463 46.5799 47.492 45.3336 46.6162 44.0928C43.6912 45.9904 41.6421 48.9209 41.6421 53.0136C41.6421 58.5715 45.4428 62.1589 51.0793 62.1589C53.7123 62.1589 56.1994 61.2831 58.4675 59.9638H58.4618ZM54.953 37.137C59.4162 35.9693 61.9032 33.8472 61.9032 29.8219C61.9032 26.751 60.219 24.6289 57.0022 24.6289C53.7853 24.6289 51.9495 26.678 51.9495 29.8949C51.9495 32.5279 52.9713 34.577 54.9531 37.137H54.953Z" fill="var(--fill-0, #E4A0F9)"/>
</g>
</svg>
