<svg preserveAspectRatio="none" width="100%" height="100%" overflow="visible" style="display: block;" viewBox="0 0 141.492 141.492" fill="none" xmlns="http://www.w3.org/2000/svg">
<g id="Group 46">
<path id="Path 14" d="M100.391 0H41.1014C18.438 0 0 18.438 0 41.1011V100.39C0 123.054 18.438 141.492 41.1014 141.492H100.391C123.054 141.492 141.492 123.054 141.492 100.391V41.1011C141.492 18.438 123.054 0 100.391 0ZM130.438 100.39C130.438 116.958 116.959 130.437 100.391 130.437H41.1014C24.5333 130.437 11.0543 116.958 11.0543 100.391V41.1011C11.0543 24.5331 24.5333 11.0541 41.1014 11.0541H100.391C116.959 11.0541 130.438 24.5331 130.438 41.1011V100.39Z" fill="var(--fill-0, #87CEFA)"/>
<path id="Path 15" d="M70.7463 32.6094C49.7177 32.6094 32.61 49.7171 32.61 70.7456C32.61 91.7746 49.7177 108.882 70.7463 108.882C91.7748 108.882 108.883 91.7746 108.883 70.7456C108.883 49.7171 91.7748 32.6094 70.7463 32.6094V32.6094ZM70.7463 97.8281C55.8132 97.8281 43.6637 85.679 43.6637 70.7456C43.6637 55.8126 55.8132 43.6635 70.7463 43.6635C85.6796 43.6635 97.8287 55.8126 97.8287 70.7456C97.8287 85.679 85.6796 97.8281 70.7463 97.8281Z" fill="var(--fill-0, #87CEFA)"/>
<path id="Path 16" d="M108.019 22.1934C111.071 22.1934 113.546 24.668 113.546 27.7202C113.546 30.7728 111.071 33.2475 108.019 33.2475C104.966 33.2475 102.492 30.7728 102.492 27.7202C102.492 24.668 104.966 22.1934 108.019 22.1934Z" fill="var(--fill-0, #87CEFA)"/>
</g>
</svg>
