<svg width="1920" height="80" viewBox="0 0 1920 80" fill="none" xmlns="http://www.w3.org/2000/svg">
<rect width="1920" height="80" fill="#1E1E1E"/>
<g id="ORDER NOW: LOADING PAGE" clip-path="url(#clip0_3311_2)">
<rect width="1920" height="1282" transform="translate(-0.000488281 -466.535)" fill="white"/>
<g id="Group 85">
<path id="Path 31" opacity="0.1" d="M765.51 55.6342C765.51 43.2108 773.944 36.1416 785.011 33.062C782.273 28.6176 780.68 24.5056 780.68 19.72C780.68 8.54765 789.114 0 805.186 0C818.073 0 825.711 7.29655 825.711 17.4452C825.711 27.594 819.21 32.8345 807.706 35.118C807.924 35.4592 808.274 35.8005 808.616 36.1416L820.812 52.8957L821.38 53.8144C825.028 49.7111 828.222 45.153 830.05 41.0498H822.631V31.251H850.566V41.0498H843.725C838.712 48.3464 833.576 54.9605 827.312 61.461C830.05 64.4181 832.325 65.6779 835.177 65.6779C839.622 65.6779 840.077 63.8494 840.077 60.3149V56.5528H850.566V61.9159C850.566 73.8843 845.098 79.1337 832.78 79.1337C826.061 79.1337 820.707 77.0864 814.661 71.4959C808.388 76.0541 801.092 79.1337 792.999 79.1337C774.302 79.1337 765.519 69.0987 765.519 55.6517L765.51 55.6342ZM808.038 64.2956C806.56 62.4757 805.081 60.6472 803.594 58.4776L794.022 45.4855C792.43 43.4382 790.943 41.496 789.578 39.5625C785.02 42.5196 781.826 47.0865 781.826 53.4645C781.826 62.1258 787.749 67.7164 796.533 67.7164C800.637 67.7164 804.512 66.3516 808.047 64.2956H808.038ZM802.57 28.7226C809.525 26.9028 813.401 23.5957 813.401 17.3228C813.401 12.5371 810.777 9.23003 805.763 9.23003C800.75 9.23003 797.889 12.4234 797.889 17.4365C797.889 21.5398 799.482 24.7331 802.57 28.7226H802.57Z" fill="white"/>
<path id="Path 34" opacity="0.1" d="M1020.68 55.6342C1020.68 43.2108 1029.11 36.1416 1040.18 33.062C1037.44 28.6176 1035.85 24.5056 1035.85 19.72C1035.85 8.54765 1044.28 0 1060.36 0C1073.24 0 1080.88 7.29655 1080.88 17.4452C1080.88 27.594 1074.38 32.8345 1062.88 35.118C1063.09 35.4592 1063.44 35.8005 1063.79 36.1416L1075.98 52.8957L1076.55 53.8144C1080.2 49.7111 1083.39 45.153 1085.22 41.0498H1077.8V31.251H1105.74V41.0498H1098.89C1093.88 48.3464 1088.75 54.9605 1082.48 61.461C1085.22 64.4181 1087.49 65.6779 1090.35 65.6779C1094.79 65.6779 1095.25 63.8494 1095.25 60.3149V56.5528H1105.74V61.9159C1105.74 73.8843 1100.27 79.1337 1087.95 79.1337C1081.23 79.1337 1075.88 77.0864 1069.83 71.4959C1063.56 76.0541 1056.26 79.1337 1048.17 79.1337C1029.47 79.1337 1020.69 69.0987 1020.69 55.6517L1020.68 55.6342ZM1063.21 64.2956C1061.73 62.4757 1060.25 60.6472 1058.76 58.4776L1049.19 45.4855C1047.6 43.4382 1046.11 41.496 1044.75 39.5625C1040.19 42.5196 1037 47.0865 1037 53.4645C1037 62.1258 1042.92 67.7164 1051.7 67.7164C1055.81 67.7164 1059.68 66.3516 1063.22 64.2956H1063.21ZM1057.74 28.7226C1064.7 26.9028 1068.57 23.5957 1068.57 17.3228C1068.57 12.5371 1065.95 9.23003 1060.93 9.23003C1055.92 9.23003 1053.06 12.4234 1053.06 17.4365C1053.06 21.5398 1054.65 24.7331 1057.74 28.7226H1057.74Z" fill="white"/>
<path id="Path 37" opacity="0.1" d="M1275.85 55.6342C1275.85 43.2108 1284.28 36.1416 1295.35 33.062C1292.61 28.6176 1291.02 24.5056 1291.02 19.72C1291.02 8.54765 1299.45 0 1315.53 0C1328.41 0 1336.05 7.29655 1336.05 17.4452C1336.05 27.594 1329.55 32.8345 1318.05 35.118C1318.26 35.4592 1318.61 35.8005 1318.96 36.1416L1331.15 52.8957L1331.72 53.8144C1335.37 49.7111 1338.56 45.153 1340.39 41.0498H1332.97V31.251H1360.91V41.0498H1354.06C1349.05 48.3464 1343.92 54.9605 1337.65 61.461C1340.39 64.4181 1342.66 65.6779 1345.52 65.6779C1349.96 65.6779 1350.42 63.8494 1350.42 60.3149V56.5528H1360.91V61.9159C1360.91 73.8843 1355.44 79.1337 1343.12 79.1337C1336.4 79.1337 1331.05 77.0864 1325 71.4959C1318.73 76.0541 1311.43 79.1337 1303.34 79.1337C1284.64 79.1337 1275.86 69.0987 1275.86 55.6517L1275.85 55.6342ZM1318.38 64.2956C1316.9 62.4757 1315.42 60.6472 1313.93 58.4776L1304.36 45.4855C1302.77 43.4382 1301.28 41.496 1299.92 39.5625C1295.36 42.5196 1292.17 47.0865 1292.17 53.4645C1292.17 62.1258 1298.09 67.7164 1306.87 67.7164C1310.98 67.7164 1314.85 66.3516 1318.39 64.2956H1318.38ZM1312.91 28.7226C1319.87 26.9028 1323.74 23.5957 1323.74 17.3228C1323.74 12.5371 1321.12 9.23003 1316.1 9.23003C1311.09 9.23003 1308.23 12.4234 1308.23 17.4365C1308.23 21.5398 1309.82 24.7331 1312.91 28.7226H1312.91Z" fill="white"/>
<path id="Path 40" opacity="0.1" d="M1531.02 55.6342C1531.02 43.2108 1539.45 36.1416 1550.52 33.062C1547.78 28.6176 1546.19 24.5056 1546.19 19.72C1546.19 8.54765 1554.62 0 1570.7 0C1583.58 0 1591.22 7.29655 1591.22 17.4452C1591.22 27.594 1584.72 32.8345 1573.22 35.118C1573.43 35.4592 1573.78 35.8005 1574.13 36.1416L1586.32 52.8957L1586.89 53.8144C1590.54 49.7111 1593.73 45.153 1595.56 41.0498H1588.14V31.251H1616.08V41.0498H1609.23C1604.22 48.3464 1599.09 54.9605 1592.82 61.461C1595.56 64.4181 1597.83 65.6779 1600.69 65.6779C1605.13 65.6779 1605.59 63.8494 1605.59 60.3149V56.5528H1616.08V61.9159C1616.08 73.8843 1610.61 79.1337 1598.29 79.1337C1591.57 79.1337 1586.22 77.0864 1580.17 71.4959C1573.9 76.0541 1566.6 79.1337 1558.51 79.1337C1539.81 79.1337 1531.03 69.0987 1531.03 55.6517L1531.02 55.6342ZM1573.55 64.2956C1572.07 62.4757 1570.59 60.6472 1569.1 58.4776L1559.53 45.4855C1557.94 43.4382 1556.45 41.496 1555.09 39.5625C1550.53 42.5196 1547.34 47.0865 1547.34 53.4645C1547.34 62.1258 1553.26 67.7164 1562.04 67.7164C1566.15 67.7164 1570.02 66.3516 1573.56 64.2956H1573.55ZM1568.08 28.7226C1575.04 26.9028 1578.91 23.5957 1578.91 17.3228C1578.91 12.5371 1576.29 9.23003 1571.27 9.23003C1566.26 9.23003 1563.4 12.4234 1563.4 17.4365C1563.4 21.5398 1564.99 24.7331 1568.08 28.7226H1568.08Z" fill="white"/>
<path id="Path 43" opacity="0.1" d="M1786.19 55.6342C1786.19 43.2108 1794.62 36.1416 1805.69 33.062C1802.95 28.6176 1801.36 24.5056 1801.36 19.72C1801.36 8.54765 1809.79 0 1825.87 0C1838.75 0 1846.39 7.29655 1846.39 17.4452C1846.39 27.594 1839.89 32.8345 1828.39 35.118C1828.6 35.4592 1828.95 35.8005 1829.3 36.1416L1841.49 52.8957L1842.06 53.8144C1845.71 49.7111 1848.9 45.153 1850.73 41.0498H1843.31V31.251H1871.25V41.0498H1864.4C1859.39 48.3464 1854.26 54.9605 1847.99 61.461C1850.73 64.4181 1853 65.6779 1855.86 65.6779C1860.3 65.6779 1860.76 63.8494 1860.76 60.3149V56.5528H1871.25V61.9159C1871.25 73.8843 1865.78 79.1337 1853.46 79.1337C1846.74 79.1337 1841.39 77.0864 1835.34 71.4959C1829.07 76.0541 1821.77 79.1337 1813.68 79.1337C1794.98 79.1337 1786.2 69.0987 1786.2 55.6517L1786.19 55.6342ZM1828.72 64.2956C1827.24 62.4757 1825.76 60.6472 1824.27 58.4776L1814.7 45.4855C1813.11 43.4382 1811.62 41.496 1810.26 39.5625C1805.7 42.5196 1802.51 47.0865 1802.51 53.4645C1802.51 62.1258 1808.43 67.7164 1817.21 67.7164C1821.32 67.7164 1825.19 66.3516 1828.73 64.2956H1828.72ZM1823.25 28.7226C1830.21 26.9028 1834.08 23.5957 1834.08 17.3228C1834.08 12.5371 1831.46 9.23003 1826.44 9.23003C1821.43 9.23003 1818.57 12.4234 1818.57 17.4365C1818.57 21.5398 1820.16 24.7331 1823.25 28.7226H1823.25Z" fill="white"/>
<path id="Path 32" opacity="0.1" d="M850.566 55.6342C850.566 43.2108 859 36.1416 870.068 33.062C867.329 28.6176 865.737 24.5056 865.737 19.72C865.737 8.54765 874.171 0 890.243 0C903.13 0 910.768 7.29655 910.768 17.4452C910.768 27.594 904.267 32.8345 892.762 35.118C892.981 35.4592 893.331 35.8005 893.672 36.1416L905.868 52.8957L906.437 53.8144C910.085 49.7111 913.278 45.153 915.107 41.0498H907.688V31.251H935.623V41.0498H928.782C923.768 48.3464 918.633 54.9605 912.369 61.461C915.107 64.4181 917.382 65.6779 920.234 65.6779C924.678 65.6779 925.133 63.8494 925.133 60.3149V56.5528H935.623V61.9159C935.623 73.8843 930.155 79.1337 917.837 79.1337C911.118 79.1337 905.763 77.0864 899.718 71.4959C893.445 76.0541 886.148 79.1337 878.055 79.1337C859.359 79.1337 850.575 69.0987 850.575 55.6517L850.566 55.6342ZM893.095 64.2956C891.616 62.4757 890.138 60.6472 888.65 58.4776L879.079 45.4855C877.487 43.4382 875.999 41.496 874.635 39.5625C870.076 42.5196 866.883 47.0865 866.883 53.4645C866.883 62.1258 872.806 67.7164 881.59 67.7164C885.693 67.7164 889.569 66.3516 893.103 64.2956H893.095ZM887.627 28.7226C894.582 26.9028 898.458 23.5957 898.458 17.3228C898.458 12.5371 895.833 9.23003 890.82 9.23003C885.807 9.23003 882.946 12.4234 882.946 17.4365C882.946 21.5398 884.538 24.7331 887.627 28.7226H887.627Z" fill="white"/>
<path id="Path 35" opacity="0.1" d="M1105.74 55.6342C1105.74 43.2108 1114.17 36.1416 1125.24 33.062C1122.5 28.6176 1120.91 24.5056 1120.91 19.72C1120.91 8.54765 1129.34 0 1145.41 0C1158.3 0 1165.94 7.29655 1165.94 17.4452C1165.94 27.594 1159.44 32.8345 1147.93 35.118C1148.15 35.4592 1148.5 35.8005 1148.84 36.1416L1161.04 52.8957L1161.61 53.8144C1165.26 49.7111 1168.45 45.153 1170.28 41.0498H1162.86V31.251H1190.79V41.0498H1183.95C1178.94 48.3464 1173.8 54.9605 1167.54 61.461C1170.28 64.4181 1172.55 65.6779 1175.4 65.6779C1179.85 65.6779 1180.3 63.8494 1180.3 60.3149V56.5528H1190.79V61.9159C1190.79 73.8843 1185.33 79.1337 1173.01 79.1337C1166.29 79.1337 1160.93 77.0864 1154.89 71.4959C1148.61 76.0541 1141.32 79.1337 1133.23 79.1337C1114.53 79.1337 1105.75 69.0987 1105.75 55.6517L1105.74 55.6342ZM1148.26 64.2956C1146.79 62.4757 1145.31 60.6472 1143.82 58.4776L1134.25 45.4855C1132.66 43.4382 1131.17 41.496 1129.8 39.5625C1125.25 42.5196 1122.05 47.0865 1122.05 53.4645C1122.05 62.1258 1127.98 67.7164 1136.76 67.7164C1140.86 67.7164 1144.74 66.3516 1148.27 64.2956H1148.26ZM1142.8 28.7226C1149.75 26.9028 1153.63 23.5957 1153.63 17.3228C1153.63 12.5371 1151 9.23003 1145.99 9.23003C1140.98 9.23003 1138.12 12.4234 1138.12 17.4365C1138.12 21.5398 1139.71 24.7331 1142.8 28.7226H1142.8Z" fill="white"/>
<path id="Path 38" opacity="0.1" d="M1360.91 55.6342C1360.91 43.2108 1369.34 36.1416 1380.41 33.062C1377.67 28.6176 1376.08 24.5056 1376.08 19.72C1376.08 8.54765 1384.51 0 1400.58 0C1413.47 0 1421.11 7.29655 1421.11 17.4452C1421.11 27.594 1414.61 32.8345 1403.1 35.118C1403.32 35.4592 1403.67 35.8005 1404.01 36.1416L1416.21 52.8957L1416.78 53.8144C1420.42 49.7111 1423.62 45.153 1425.45 41.0498H1418.03V31.251H1445.96V41.0498H1439.12C1434.11 48.3464 1428.97 54.9605 1422.71 61.461C1425.45 64.4181 1427.72 65.6779 1430.57 65.6779C1435.02 65.6779 1435.47 63.8494 1435.47 60.3149V56.5528H1445.96V61.9159C1445.96 73.8843 1440.49 79.1337 1428.18 79.1337C1421.46 79.1337 1416.1 77.0864 1410.06 71.4959C1403.78 76.0541 1396.49 79.1337 1388.4 79.1337C1369.7 79.1337 1360.92 69.0987 1360.92 55.6517L1360.91 55.6342ZM1403.43 64.2956C1401.96 62.4757 1400.48 60.6472 1398.99 58.4776L1389.42 45.4855C1387.83 43.4382 1386.34 41.496 1384.97 39.5625C1380.42 42.5196 1377.22 47.0865 1377.22 53.4645C1377.22 62.1258 1383.15 67.7164 1391.93 67.7164C1396.03 67.7164 1399.91 66.3516 1403.44 64.2956H1403.43ZM1397.97 28.7226C1404.92 26.9028 1408.8 23.5957 1408.8 17.3228C1408.8 12.5371 1406.17 9.23003 1401.16 9.23003C1396.15 9.23003 1393.29 12.4234 1393.29 17.4365C1393.29 21.5398 1394.88 24.7331 1397.97 28.7226H1397.97Z" fill="white"/>
<path id="Path 41" opacity="0.1" d="M1616.08 55.6342C1616.08 43.2108 1624.51 36.1416 1635.58 33.062C1632.84 28.6176 1631.25 24.5056 1631.25 19.72C1631.25 8.54765 1639.68 0 1655.75 0C1668.64 0 1676.28 7.29655 1676.28 17.4452C1676.28 27.594 1669.78 32.8345 1658.27 35.118C1658.49 35.4592 1658.84 35.8005 1659.18 36.1416L1671.38 52.8957L1671.95 53.8144C1675.59 49.7111 1678.79 45.153 1680.62 41.0498H1673.2V31.251H1701.13V41.0498H1694.29C1689.28 48.3464 1684.14 54.9605 1677.88 61.461C1680.62 64.4181 1682.89 65.6779 1685.74 65.6779C1690.19 65.6779 1690.64 63.8494 1690.64 60.3149V56.5528H1701.13V61.9159C1701.13 73.8843 1695.66 79.1337 1683.35 79.1337C1676.63 79.1337 1671.27 77.0864 1665.23 71.4959C1658.95 76.0541 1651.66 79.1337 1643.57 79.1337C1624.87 79.1337 1616.08 69.0987 1616.08 55.6517L1616.08 55.6342ZM1658.6 64.2956C1657.13 62.4757 1655.65 60.6472 1654.16 58.4776L1644.59 45.4855C1643 43.4382 1641.51 41.496 1640.14 39.5625C1635.59 42.5196 1632.39 47.0865 1632.39 53.4645C1632.39 62.1258 1638.32 67.7164 1647.1 67.7164C1651.2 67.7164 1655.08 66.3516 1658.61 64.2956H1658.6ZM1653.14 28.7226C1660.09 26.9028 1663.97 23.5957 1663.97 17.3228C1663.97 12.5371 1661.34 9.23003 1656.33 9.23003C1651.32 9.23003 1648.46 12.4234 1648.46 17.4365C1648.46 21.5398 1650.05 24.7331 1653.14 28.7226H1653.14Z" fill="white"/>
<path id="Path 44" opacity="0.1" d="M1871.25 55.6342C1871.25 43.2108 1879.68 36.1416 1890.75 33.062C1888.01 28.6176 1886.42 24.5056 1886.42 19.72C1886.42 8.54765 1894.85 0 1910.92 0C1923.81 0 1931.45 7.29655 1931.45 17.4452C1931.45 27.594 1924.95 32.8345 1913.44 35.118C1913.66 35.4592 1914.01 35.8005 1914.35 36.1416L1926.55 52.8957L1927.12 53.8144C1930.76 49.7111 1933.96 45.153 1935.79 41.0498H1928.37V31.251H1956.3V41.0498H1949.46C1944.45 48.3464 1939.31 54.9605 1933.05 61.461C1935.79 64.4181 1938.06 65.6779 1940.91 65.6779C1945.36 65.6779 1945.81 63.8494 1945.81 60.3149V56.5528H1956.3V61.9159C1956.3 73.8843 1950.83 79.1337 1938.52 79.1337C1931.8 79.1337 1926.44 77.0864 1920.4 71.4959C1914.12 76.0541 1906.83 79.1337 1898.74 79.1337C1880.04 79.1337 1871.25 69.0987 1871.25 55.6517L1871.25 55.6342ZM1913.77 64.2956C1912.3 62.4757 1910.82 60.6472 1909.33 58.4776L1899.76 45.4855C1898.17 43.4382 1896.68 41.496 1895.31 39.5625C1890.76 42.5196 1887.56 47.0865 1887.56 53.4645C1887.56 62.1258 1893.49 67.7164 1902.27 67.7164C1906.37 67.7164 1910.25 66.3516 1913.78 64.2956H1913.77ZM1908.31 28.7226C1915.26 26.9028 1919.14 23.5957 1919.14 17.3228C1919.14 12.5371 1916.51 9.23003 1911.5 9.23003C1906.49 9.23003 1903.63 12.4234 1903.63 17.4365C1903.63 21.5398 1905.22 24.7331 1908.31 28.7226H1908.31Z" fill="white"/>
<path id="Path 33" opacity="0.1" d="M935.623 55.6342C935.623 43.2108 944.057 36.1416 955.124 33.062C952.386 28.6176 950.794 24.5056 950.794 19.72C950.794 8.54765 959.228 0 975.299 0C988.186 0 995.824 7.29655 995.824 17.4452C995.824 27.594 989.324 32.8345 977.819 35.118C978.038 35.4592 978.388 35.8005 978.729 36.1416L990.925 52.8957L991.494 53.8144C995.142 49.7111 998.335 45.153 1000.16 41.0498H992.745V31.251H1020.68V41.0498H1013.84C1008.83 48.3464 1003.69 54.9605 997.425 61.461C1000.16 64.4181 1002.44 65.6779 1005.29 65.6779C1009.73 65.6779 1010.19 63.8494 1010.19 60.3149V56.5528H1020.68V61.9159C1020.68 73.8843 1015.21 79.1337 1002.89 79.1337C996.174 79.1337 990.82 77.0864 984.774 71.4959C978.501 76.0541 971.205 79.1337 963.112 79.1337C944.416 79.1337 935.632 69.0987 935.632 55.6517L935.623 55.6342ZM978.151 64.2956C976.673 62.4757 975.194 60.6472 973.707 58.4776L964.136 45.4855C962.543 43.4382 961.056 41.496 959.691 39.5625C955.133 42.5196 951.94 47.0865 951.94 53.4645C951.94 62.1258 957.863 67.7164 966.647 67.7164C970.75 67.7164 974.626 66.3516 978.16 64.2956H978.151ZM972.683 28.7226C979.639 26.9028 983.514 23.5957 983.514 17.3228C983.514 12.5371 980.89 9.23003 975.877 9.23003C970.864 9.23003 968.003 12.4234 968.003 17.4365C968.003 21.5398 969.595 24.7331 972.683 28.7226H972.683Z" fill="white"/>
<path id="Path 36" opacity="0.1" d="M1190.79 55.6342C1190.79 43.2108 1199.23 36.1416 1210.29 33.062C1207.56 28.6176 1205.96 24.5056 1205.96 19.72C1205.96 8.54765 1214.4 0 1230.47 0C1243.36 0 1250.99 7.29655 1250.99 17.4452C1250.99 27.594 1244.49 32.8345 1232.99 35.118C1233.21 35.4592 1233.56 35.8005 1233.9 36.1416L1246.09 52.8957L1246.66 53.8144C1250.31 49.7111 1253.51 45.153 1255.33 41.0498H1247.91V31.251H1275.85V41.0498H1269.01C1263.99 48.3464 1258.86 54.9605 1252.6 61.461C1255.33 64.4181 1257.61 65.6779 1260.46 65.6779C1264.9 65.6779 1265.36 63.8494 1265.36 60.3149V56.5528H1275.85V61.9159C1275.85 73.8843 1270.38 79.1337 1258.06 79.1337C1251.34 79.1337 1245.99 77.0864 1239.94 71.4959C1233.67 76.0541 1226.37 79.1337 1218.28 79.1337C1199.59 79.1337 1190.8 69.0987 1190.8 55.6517L1190.79 55.6342ZM1233.32 64.2956C1231.84 62.4757 1230.36 60.6472 1228.88 58.4776L1219.31 45.4855C1217.71 43.4382 1216.23 41.496 1214.86 39.5625C1210.3 42.5196 1207.11 47.0865 1207.11 53.4645C1207.11 62.1258 1213.03 67.7164 1221.82 67.7164C1225.92 67.7164 1229.8 66.3516 1233.33 64.2956H1233.32ZM1227.85 28.7226C1234.81 26.9028 1238.68 23.5957 1238.68 17.3228C1238.68 12.5371 1236.06 9.23003 1231.05 9.23003C1226.03 9.23003 1223.17 12.4234 1223.17 17.4365C1223.17 21.5398 1224.76 24.7331 1227.85 28.7226H1227.85Z" fill="white"/>
<path id="Path 39" opacity="0.1" d="M1445.96 55.6342C1445.96 43.2108 1454.4 36.1416 1465.46 33.062C1462.73 28.6176 1461.13 24.5056 1461.13 19.72C1461.13 8.54765 1469.57 0 1485.64 0C1498.53 0 1506.16 7.29655 1506.16 17.4452C1506.16 27.594 1499.66 32.8345 1488.16 35.118C1488.38 35.4592 1488.73 35.8005 1489.07 36.1416L1501.26 52.8957L1501.83 53.8144C1505.48 49.7111 1508.67 45.153 1510.5 41.0498H1503.08V31.251H1531.02V41.0498H1524.18C1519.16 48.3464 1514.03 54.9605 1507.77 61.461C1510.5 64.4181 1512.78 65.6779 1515.63 65.6779C1520.07 65.6779 1520.53 63.8494 1520.53 60.3149V56.5528H1531.02V61.9159C1531.02 73.8843 1525.55 79.1337 1513.23 79.1337C1506.51 79.1337 1501.16 77.0864 1495.11 71.4959C1488.84 76.0541 1481.54 79.1337 1473.45 79.1337C1454.76 79.1337 1445.97 69.0987 1445.97 55.6517L1445.96 55.6342ZM1488.49 64.2956C1487.01 62.4757 1485.53 60.6472 1484.05 58.4776L1474.48 45.4855C1472.88 43.4382 1471.4 41.496 1470.03 39.5625C1465.47 42.5196 1462.28 47.0865 1462.28 53.4645C1462.28 62.1258 1468.2 67.7164 1476.99 67.7164C1481.09 67.7164 1484.97 66.3516 1488.5 64.2956H1488.49ZM1483.02 28.7226C1489.98 26.9028 1493.85 23.5957 1493.85 17.3228C1493.85 12.5371 1491.23 9.23003 1486.22 9.23003C1481.2 9.23003 1478.34 12.4234 1478.34 17.4365C1478.34 21.5398 1479.93 24.7331 1483.02 28.7226H1483.02Z" fill="white"/>
<path id="Path 42" opacity="0.1" d="M1701.13 55.6342C1701.13 43.2108 1709.57 36.1416 1720.63 33.062C1717.9 28.6176 1716.3 24.5056 1716.3 19.72C1716.3 8.54765 1724.74 0 1740.81 0C1753.7 0 1761.33 7.29655 1761.33 17.4452C1761.33 27.594 1754.83 32.8345 1743.33 35.118C1743.55 35.4592 1743.9 35.8005 1744.24 36.1416L1756.43 52.8957L1757 53.8144C1760.65 49.7111 1763.84 45.153 1765.67 41.0498H1758.25V31.251H1786.19V41.0498H1779.35C1774.33 48.3464 1769.2 54.9605 1762.93 61.461C1765.67 64.4181 1767.95 65.6779 1770.8 65.6779C1775.24 65.6779 1775.7 63.8494 1775.7 60.3149V56.5528H1786.19V61.9159C1786.19 73.8843 1780.72 79.1337 1768.4 79.1337C1761.68 79.1337 1756.33 77.0864 1750.28 71.4959C1744.01 76.0541 1736.71 79.1337 1728.62 79.1337C1709.93 79.1337 1701.14 69.0987 1701.14 55.6517L1701.13 55.6342ZM1743.66 64.2956C1742.18 62.4757 1740.7 60.6472 1739.22 58.4776L1729.65 45.4855C1728.05 43.4382 1726.57 41.496 1725.2 39.5625C1720.64 42.5196 1717.45 47.0865 1717.45 53.4645C1717.45 62.1258 1723.37 67.7164 1732.16 67.7164C1736.26 67.7164 1740.14 66.3516 1743.67 64.2956H1743.66ZM1738.19 28.7226C1745.15 26.9028 1749.02 23.5957 1749.02 17.3228C1749.02 12.5371 1746.4 9.23003 1741.39 9.23003C1736.37 9.23003 1733.51 12.4234 1733.51 17.4365C1733.51 21.5398 1735.1 24.7331 1738.19 28.7226H1738.19Z" fill="white"/>
<path id="Path 22" opacity="0.1" d="M0 55.6342C0 43.2108 8.43391 36.1416 19.5013 33.062C16.7629 28.6176 15.1706 24.5056 15.1706 19.72C15.1706 8.54765 23.6045 0 39.6762 0C52.5633 0 60.2011 7.29655 60.2011 17.4452C60.2011 27.594 53.7007 32.8345 42.1959 35.118C42.4146 35.4592 42.7646 35.8005 43.1058 36.1416L55.3017 52.8957L55.8705 53.8144C59.5187 49.7111 62.7121 45.153 64.5406 41.0498H57.1215V31.251H85.0567V41.0498H78.2151C73.202 48.3464 68.0664 54.9605 61.8021 61.461C64.5406 64.4181 66.8153 65.6779 69.6674 65.6779C74.1118 65.6779 74.5668 63.8494 74.5668 60.3149V56.5528H85.0567V61.9159C85.0567 73.8843 79.5887 79.1337 67.2702 79.1337C60.5511 79.1337 55.1967 77.0864 49.1513 71.4959C42.8784 76.0541 35.5818 79.1337 27.489 79.1337C8.7927 79.1337 0.0087738 69.0987 0.0087738 55.6517L0 55.6342ZM42.5284 64.2956C41.0498 62.4757 39.5712 60.6472 38.0839 58.4776L28.5126 45.4855C26.9203 43.4382 25.433 41.496 24.0682 39.5625C19.51 42.5196 16.3167 47.0865 16.3167 53.4645C16.3167 62.1258 22.2396 67.7164 31.0236 67.7164C35.1268 67.7164 39.0026 66.3516 42.5371 64.2956H42.5284ZM37.0603 28.7226C44.0157 26.9028 47.8914 23.5957 47.8914 17.3228C47.8914 12.5371 45.2667 9.23003 40.2537 9.23003C35.2406 9.23003 32.3797 12.4234 32.3797 17.4365C32.3797 21.5398 33.9719 24.7331 37.0603 28.7226H37.0603Z" fill="white"/>
<path id="Path 25" opacity="0.1" d="M255.17 55.6342C255.17 43.2108 263.604 36.1416 274.671 33.062C271.933 28.6176 270.341 24.5056 270.341 19.72C270.341 8.54765 278.774 0 294.846 0C307.733 0 315.371 7.29655 315.371 17.4452C315.371 27.594 308.871 32.8345 297.366 35.118C297.585 35.4592 297.934 35.8005 298.276 36.1416L310.472 52.8957L311.04 53.8144C314.689 49.7111 317.882 45.153 319.71 41.0498H312.291V31.251H340.227V41.0498H333.385C328.372 48.3464 323.236 54.9605 316.972 61.461C319.71 64.4181 321.985 65.6779 324.837 65.6779C329.282 65.6779 329.737 63.8494 329.737 60.3149V56.5528H340.227V61.9159C340.227 73.8843 334.759 79.1337 322.44 79.1337C315.721 79.1337 310.367 77.0864 304.321 71.4959C298.048 76.0541 290.752 79.1337 282.659 79.1337C263.963 79.1337 255.179 69.0987 255.179 55.6517L255.17 55.6342ZM297.698 64.2956C296.22 62.4757 294.741 60.6472 293.254 58.4776L283.683 45.4855C282.09 43.4382 280.603 41.496 279.238 39.5625C274.68 42.5196 271.487 47.0865 271.487 53.4645C271.487 62.1258 277.41 67.7164 286.193 67.7164C290.297 67.7164 294.172 66.3516 297.707 64.2956H297.698ZM292.23 28.7226C299.186 26.9028 303.061 23.5957 303.061 17.3228C303.061 12.5371 300.437 9.23003 295.424 9.23003C290.41 9.23003 287.55 12.4234 287.55 17.4365C287.55 21.5398 289.142 24.7331 292.23 28.7226H292.23Z" fill="white"/>
<path id="Path 28" opacity="0.1" d="M510.34 55.6342C510.34 43.2108 518.774 36.1416 529.841 33.062C527.103 28.6176 525.51 24.5056 525.51 19.72C525.51 8.54765 533.944 0 550.016 0C562.903 0 570.541 7.29655 570.541 17.4452C570.541 27.594 564.041 32.8345 552.536 35.118C552.754 35.4592 553.104 35.8005 553.446 36.1416L565.642 52.8957L566.21 53.8144C569.859 49.7111 573.052 45.153 574.88 41.0498H567.461V31.251H595.397V41.0498H588.555C583.542 48.3464 578.406 54.9605 572.142 61.461C574.88 64.4181 577.155 65.6779 580.007 65.6779C584.452 65.6779 584.907 63.8494 584.907 60.3149V56.5528H595.397V61.9159C595.397 73.8843 589.929 79.1337 577.61 79.1337C570.891 79.1337 565.537 77.0864 559.491 71.4959C553.218 76.0541 545.922 79.1337 537.829 79.1337C519.133 79.1337 510.349 69.0987 510.349 55.6517L510.34 55.6342ZM552.868 64.2956C551.39 62.4757 549.911 60.6472 548.424 58.4776L538.852 45.4855C537.26 43.4382 535.773 41.496 534.408 39.5625C529.85 42.5196 526.657 47.0865 526.657 53.4645C526.657 62.1258 532.579 67.7164 541.363 67.7164C545.467 67.7164 549.342 66.3516 552.877 64.2956H552.868ZM547.4 28.7226C554.356 26.9028 558.231 23.5957 558.231 17.3228C558.231 12.5371 555.607 9.23003 550.594 9.23003C545.58 9.23003 542.72 12.4234 542.72 17.4365C542.72 21.5398 544.312 24.7331 547.4 28.7226H547.4Z" fill="white"/>
<path id="Path 23" opacity="0.1" d="M85.0566 55.6342C85.0566 43.2108 93.4906 36.1416 104.558 33.062C101.82 28.6176 100.227 24.5056 100.227 19.72C100.227 8.54765 108.661 0 124.733 0C137.62 0 145.258 7.29655 145.258 17.4452C145.258 27.594 138.757 32.8345 127.253 35.118C127.471 35.4592 127.821 35.8005 128.162 36.1416L140.358 52.8957L140.927 53.8144C144.575 49.7111 147.769 45.153 149.597 41.0498H142.178V31.251H170.113V41.0498H163.272C158.259 48.3464 153.123 54.9605 146.859 61.461C149.597 64.4181 151.872 65.6779 154.724 65.6779C159.168 65.6779 159.623 63.8494 159.623 60.3149V56.5528H170.113V61.9159C170.113 73.8843 164.645 79.1337 152.327 79.1337C145.608 79.1337 140.253 77.0864 134.208 71.4959C127.935 76.0541 120.638 79.1337 112.546 79.1337C93.8493 79.1337 85.0654 69.0987 85.0654 55.6517L85.0566 55.6342ZM127.585 64.2956C126.106 62.4757 124.628 60.6472 123.141 58.4776L113.569 45.4855C111.977 43.4382 110.49 41.496 109.125 39.5625C104.567 42.5196 101.373 47.0865 101.373 53.4645C101.373 62.1258 107.296 67.7164 116.08 67.7164C120.183 67.7164 124.059 66.3516 127.594 64.2956H127.585ZM122.117 28.7226C129.072 26.9028 132.948 23.5957 132.948 17.3228C132.948 12.5371 130.323 9.23003 125.31 9.23003C120.297 9.23003 117.436 12.4234 117.436 17.4365C117.436 21.5398 119.029 24.7331 122.117 28.7226H122.117Z" fill="white"/>
<path id="Path 26" opacity="0.1" d="M340.227 55.6342C340.227 43.2108 348.66 36.1416 359.728 33.062C356.989 28.6176 355.397 24.5056 355.397 19.72C355.397 8.54765 363.831 0 379.903 0C392.79 0 400.428 7.29655 400.428 17.4452C400.428 27.594 393.927 32.8345 382.422 35.118C382.641 35.4592 382.991 35.8005 383.332 36.1416L395.528 52.8957L396.097 53.8144C399.745 49.7111 402.939 45.153 404.767 41.0498H397.348V31.251H425.283V41.0498H418.442C413.429 48.3464 408.293 54.9605 402.029 61.461C404.767 64.4181 407.042 65.6779 409.894 65.6779C414.338 65.6779 414.793 63.8494 414.793 60.3149V56.5528H425.283V61.9159C425.283 73.8843 419.815 79.1337 407.497 79.1337C400.778 79.1337 395.423 77.0864 389.378 71.4959C383.105 76.0541 375.808 79.1337 367.716 79.1337C349.019 79.1337 340.235 69.0987 340.235 55.6517L340.227 55.6342ZM382.755 64.2956C381.276 62.4757 379.798 60.6472 378.31 58.4776L368.739 45.4855C367.147 43.4382 365.66 41.496 364.295 39.5625C359.737 42.5196 356.543 47.0865 356.543 53.4645C356.543 62.1258 362.466 67.7164 371.25 67.7164C375.353 67.7164 379.229 66.3516 382.764 64.2956H382.755ZM377.287 28.7226C384.242 26.9028 388.118 23.5957 388.118 17.3228C388.118 12.5371 385.493 9.23003 380.48 9.23003C375.467 9.23003 372.606 12.4234 372.606 17.4365C372.606 21.5398 374.199 24.7331 377.287 28.7226H377.287Z" fill="white"/>
<path id="Path 29" opacity="0.1" d="M595.396 55.6342C595.396 43.2108 603.83 36.1416 614.898 33.062C612.159 28.6176 610.567 24.5056 610.567 19.72C610.567 8.54765 619.001 0 635.073 0C647.96 0 655.598 7.29655 655.598 17.4452C655.598 27.594 649.097 32.8345 637.592 35.118C637.811 35.4592 638.161 35.8005 638.502 36.1416L650.698 52.8957L651.267 53.8144C654.915 49.7111 658.109 45.153 659.937 41.0498H652.518V31.251H680.453V41.0498H673.612C668.598 48.3464 663.463 54.9605 657.199 61.461C659.937 64.4181 662.212 65.6779 665.064 65.6779C669.508 65.6779 669.963 63.8494 669.963 60.3149V56.5528H680.453V61.9159C680.453 73.8843 674.985 79.1337 662.667 79.1337C655.948 79.1337 650.593 77.0864 644.548 71.4959C638.275 76.0541 630.978 79.1337 622.885 79.1337C604.189 79.1337 595.405 69.0987 595.405 55.6517L595.396 55.6342ZM637.925 64.2956C636.446 62.4757 634.968 60.6472 633.48 58.4776L623.909 45.4855C622.317 43.4382 620.83 41.496 619.465 39.5625C614.907 42.5196 611.713 47.0865 611.713 53.4645C611.713 62.1258 617.636 67.7164 626.42 67.7164C630.523 67.7164 634.399 66.3516 637.934 64.2956H637.925ZM632.457 28.7226C639.412 26.9028 643.288 23.5957 643.288 17.3228C643.288 12.5371 640.663 9.23003 635.65 9.23003C630.637 9.23003 627.776 12.4234 627.776 17.4365C627.776 21.5398 629.368 24.7331 632.457 28.7226H632.457Z" fill="white"/>
<path id="Path 24" opacity="0.1" d="M170.113 55.6342C170.113 43.2108 178.547 36.1416 189.615 33.062C186.876 28.6176 185.284 24.5056 185.284 19.72C185.284 8.54765 193.718 0 209.79 0C222.677 0 230.314 7.29655 230.314 17.4452C230.314 27.594 223.814 32.8345 212.309 35.118C212.528 35.4592 212.878 35.8005 213.219 36.1416L225.415 52.8957L225.984 53.8144C229.632 49.7111 232.825 45.153 234.654 41.0498H227.235V31.251H255.17V41.0498H248.328C243.315 48.3464 238.18 54.9605 231.915 61.461C234.654 64.4181 236.929 65.6779 239.781 65.6779C244.225 65.6779 244.68 63.8494 244.68 60.3149V56.5528H255.17V61.9159C255.17 73.8843 249.702 79.1337 237.383 79.1337C230.664 79.1337 225.31 77.0864 219.265 71.4959C212.992 76.0541 205.695 79.1337 197.602 79.1337C178.906 79.1337 170.122 69.0987 170.122 55.6517L170.113 55.6342ZM212.642 64.2956C211.163 62.4757 209.684 60.6472 208.197 58.4776L198.626 45.4855C197.034 43.4382 195.546 41.496 194.181 39.5625C189.623 42.5196 186.43 47.0865 186.43 53.4645C186.43 62.1258 192.353 67.7164 201.137 67.7164C205.24 67.7164 209.116 66.3516 212.65 64.2956H212.642ZM207.174 28.7226C214.129 26.9028 218.005 23.5957 218.005 17.3228C218.005 12.5371 215.38 9.23003 210.367 9.23003C205.354 9.23003 202.493 12.4234 202.493 17.4365C202.493 21.5398 204.085 24.7331 207.174 28.7226H207.174Z" fill="white"/>
<path id="Path 27" opacity="0.1" d="M425.283 55.6342C425.283 43.2108 433.717 36.1416 444.784 33.062C442.046 28.6176 440.454 24.5056 440.454 19.72C440.454 8.54765 448.888 0 464.959 0C477.847 0 485.484 7.29655 485.484 17.4452C485.484 27.594 478.984 32.8345 467.479 35.118C467.698 35.4592 468.048 35.8005 468.389 36.1416L480.585 52.8957L481.154 53.8144C484.802 49.7111 487.995 45.153 489.824 41.0498H482.405V31.251H510.34V41.0498H503.498C498.485 48.3464 493.35 54.9605 487.085 61.461C489.824 64.4181 492.098 65.6779 494.951 65.6779C499.395 65.6779 499.85 63.8494 499.85 60.3149V56.5528H510.34V61.9159C510.34 73.8843 504.872 79.1337 492.553 79.1337C485.834 79.1337 480.48 77.0864 474.434 71.4959C468.162 76.0541 460.865 79.1337 452.772 79.1337C434.076 79.1337 425.292 69.0987 425.292 55.6517L425.283 55.6342ZM467.812 64.2956C466.333 62.4757 464.854 60.6472 463.367 58.4776L453.796 45.4855C452.204 43.4382 450.716 41.496 449.351 39.5625C444.793 42.5196 441.6 47.0865 441.6 53.4645C441.6 62.1258 447.523 67.7164 456.307 67.7164C460.41 67.7164 464.286 66.3516 467.82 64.2956H467.812ZM462.343 28.7226C469.299 26.9028 473.175 23.5957 473.175 17.3228C473.175 12.5371 470.55 9.23003 465.537 9.23003C460.524 9.23003 457.663 12.4234 457.663 17.4365C457.663 21.5398 459.255 24.7331 462.344 28.7226H462.343Z" fill="white"/>
<path id="Path 30" opacity="0.1" d="M680.453 55.6342C680.453 43.2108 688.887 36.1416 699.954 33.062C697.216 28.6176 695.624 24.5056 695.624 19.72C695.624 8.54765 704.058 0 720.129 0C733.016 0 740.654 7.29655 740.654 17.4452C740.654 27.594 734.154 32.8345 722.649 35.118C722.868 35.4592 723.218 35.8005 723.559 36.1416L735.755 52.8957L736.324 53.8144C739.972 49.7111 743.165 45.153 744.994 41.0498H737.575V31.251H765.51V41.0498H758.668C753.655 48.3464 748.52 54.9605 742.255 61.461C744.994 64.4181 747.268 65.6779 750.121 65.6779C754.565 65.6779 755.02 63.8494 755.02 60.3149V56.5528H765.51V61.9159C765.51 73.8843 760.042 79.1337 747.723 79.1337C741.004 79.1337 735.65 77.0864 729.604 71.4959C723.331 76.0541 716.035 79.1337 707.942 79.1337C689.246 79.1337 680.462 69.0987 680.462 55.6517L680.453 55.6342ZM722.981 64.2956C721.503 62.4757 720.024 60.6472 718.537 58.4776L708.966 45.4855C707.373 43.4382 705.886 41.496 704.521 39.5625C699.963 42.5196 696.77 47.0865 696.77 53.4645C696.77 62.1258 702.693 67.7164 711.477 67.7164C715.58 67.7164 719.456 66.3516 722.99 64.2956H722.981ZM717.513 28.7226C724.469 26.9028 728.345 23.5957 728.345 17.3228C728.345 12.5371 725.72 9.23003 720.707 9.23003C715.694 9.23003 712.833 12.4234 712.833 17.4365C712.833 21.5398 714.425 24.7331 717.513 28.7226H717.513Z" fill="white"/>
</g>
</g>
<defs>
<clipPath id="clip0_3311_2">
<rect width="1920" height="1282" fill="white" transform="translate(-0.000488281 -466.535)"/>
</clipPath>
</defs>
</svg>
