<svg preserveAspectRatio="xMidYMid meet" width="100%" height="100%" overflow="visible" style="display: block;" viewBox="0 0 1221.24 1136" fill="none" xmlns="http://www.w3.org/2000/svg">
<path id="CUPS_&#38;_CAKES_LOGO_2026_UPDATE_16" opacity="0.05" d="M0 798.76C0 620.329 121.18 518.84 280.055 474.671C240.741 410.81 217.813 351.873 217.813 283.157C217.813 122.731 338.993 0 569.686 0C754.726 0 864.374 104.793 864.374 250.451C864.374 396.11 771.045 471.434 605.763 504.14C608.933 508.995 613.923 513.918 618.845 518.84L793.973 759.446L802.132 772.596C854.529 713.658 900.384 648.179 926.616 589.242H820.137V448.506H1221.24V589.242H1122.99C1051.03 694.035 977.327 788.982 887.302 882.312C926.616 924.863 959.254 942.868 1000.19 942.868C1064.05 942.868 1070.59 916.636 1070.59 865.925V811.843H1221.24V888.785C1221.24 1060.68 1142.74 1136 965.863 1136C869.364 1136 792.422 1106.53 705.701 1026.28C615.609 1091.76 510.816 1136 394.626 1136C126.17 1136 0.0675735 991.893 0.0675735 798.76H0ZM610.618 923.177C589.444 897.012 568.067 870.78 546.758 839.693L409.327 653.102C386.399 623.633 365.09 595.783 345.466 568C279.988 610.551 234.2 676.03 234.2 767.673C234.2 892.09 319.234 972.336 445.337 972.336C504.274 972.336 559.975 952.646 610.618 923.245V923.177ZM532.125 412.429C631.928 386.264 687.696 338.79 687.696 248.765C687.696 179.982 650 132.509 577.98 132.509C505.96 132.509 464.96 178.364 464.96 250.384C464.96 309.322 487.888 355.177 532.125 412.429Z" fill="var(--fill-0, white)"/>
</svg>
