<svg preserveAspectRatio="xMidYMid meet" width="100%" height="100%" overflow="visible" style="display: block;" viewBox="0 0 142.867 105.305" fill="none" xmlns="http://www.w3.org/2000/svg">
<g id="CUPS_&#38;_CAKES_LOGO_2026_UPDATE_14">
<path id="Path 5" d="M142.734 37.5218L107.765 104.743C107.587 105.086 107.231 105.305 106.841 105.305H36.0059C35.6158 105.305 35.2599 105.086 35.082 104.743L0.119613 37.5218C-0.243089 36.8238 0.263316 35.9957 1.04346 35.9957H16.4477C16.8857 35.9957 17.2758 35.722 17.4263 35.3114C24.9471 14.7884 46.2845 0 71.4336 0C96.5827 0 117.92 14.7884 125.427 35.3114C125.578 35.722 125.968 35.9957 126.406 35.9957H141.824C142.604 35.9957 143.11 36.8238 142.748 37.5218H142.734Z" fill="var(--fill-0, white)"/>
<path id="Path 6" d="M37.9971 66.3184C37.9971 56.6009 44.594 51.0715 53.2508 48.6626C51.1089 45.1863 49.8634 41.9699 49.8634 38.2266C49.8634 29.4877 56.4603 22.8018 69.0314 22.8018C79.1116 22.8018 85.0858 28.5091 85.0858 36.4474C85.0858 44.3856 80.0013 48.4847 71.0023 50.2708C71.1734 50.5377 71.4471 50.8046 71.714 51.0715L81.2536 64.1764L81.6984 64.895C84.552 61.6854 87.0498 58.1201 88.4801 54.9106H82.677V47.2461H104.528V54.9106H99.1762C95.2549 60.6179 91.2379 65.7914 86.3381 70.876C88.4801 73.189 90.2593 74.1745 92.4903 74.1745C95.9666 74.1745 96.3225 72.7442 96.3225 69.9795V67.0369H104.528V71.2318C104.528 80.5935 100.251 84.6995 90.6152 84.6995C85.3596 84.6995 81.1714 83.0981 76.4427 78.7253C71.5361 82.2906 65.8288 84.6995 59.4987 84.6995C44.8746 84.6995 38.0039 76.8502 38.0039 66.3321L37.9971 66.3184ZM71.2623 73.0932C70.1058 71.6698 68.9493 70.2395 67.7859 68.5424L60.2994 58.3802C59.0539 56.7788 57.8905 55.2596 56.823 53.7472C53.2576 56.0602 50.7598 59.6324 50.7598 64.6212C50.7598 71.3961 55.3927 75.7689 62.2634 75.7689C65.4729 75.7689 68.5045 74.7014 71.2692 73.0932H71.2623ZM66.9853 45.2684C72.4257 43.845 75.4573 41.2582 75.4573 36.3516C75.4573 32.6083 73.4043 30.0215 69.4831 30.0215C65.5619 30.0215 63.3241 32.5193 63.3241 36.4405C63.3241 39.65 64.5696 42.1478 66.9853 45.2684H66.9853Z" fill="var(--fill-0, #E4A0F9)"/>
</g>
</svg>
