<svg preserveAspectRatio="none" width="100%" height="100%" overflow="visible" style="display: block;" viewBox="0 0 1919.81 1415.13" fill="none" xmlns="http://www.w3.org/2000/svg">
<path id="Path 19" d="M1918.12 504.253L1448.18 1407.59C1445.73 1412.21 1440.98 1415.13 1435.75 1415.13H483.831C478.6 1415.13 473.777 1412.21 471.399 1407.59L1.59027 504.253C-3.23437 494.946 3.49445 483.735 14.0252 483.735H221.037C226.95 483.735 232.111 479.999 234.15 474.495C335.176 198.726 621.955 0 959.888 0C1297.82 0 1584.53 198.726 1685.49 474.495C1687.53 479.999 1692.69 483.735 1698.61 483.735H1905.75C1916.29 483.735 1923.08 494.878 1918.19 504.253L1918.12 504.253Z" fill="var(--fill-0, #E4A0F9)"/>
</svg>
