<svg preserveAspectRatio="none" width="100%" height="100%" overflow="visible" style="display: block;" viewBox="0 0 1100 1023.23" fill="none" xmlns="http://www.w3.org/2000/svg">
<path id="CUPS_&#38;_CAKES_LOGO_2026_UPDATE_15" opacity="0.1" d="M0 719.465C0 558.747 109.15 467.334 252.253 427.549C216.842 370.028 196.19 316.942 196.19 255.047C196.19 110.547 305.34 0 513.131 0C679.802 0 778.565 94.3901 778.565 225.588C778.565 356.787 694.501 424.633 545.627 454.092C548.482 458.466 552.977 462.899 557.411 467.334L715.153 684.054L722.502 695.898C769.697 642.811 811 583.833 834.628 530.746H738.72V403.982H1100V530.746H1011.5C946.693 625.136 880.305 710.658 799.217 794.722C834.628 833.049 864.026 849.266 900.895 849.266C958.416 849.266 964.308 825.639 964.308 779.962V731.249H1100V800.553C1100 955.379 1029.3 1023.23 869.979 1023.23C783.06 1023.23 713.756 996.683 635.644 924.402C554.496 983.38 460.106 1023.23 355.451 1023.23C113.645 1023.23 0.0608826 893.424 0.0608826 719.465H0ZM550.001 831.53C530.928 807.963 511.674 784.336 492.48 756.334L368.692 588.267C348.04 561.723 328.846 536.638 311.171 511.613C252.193 549.94 210.95 608.918 210.95 691.464C210.95 803.529 287.543 875.81 401.127 875.81C454.214 875.81 504.385 858.074 550.001 831.591V831.53ZM479.299 371.486C569.194 347.919 619.426 305.158 619.426 224.07C619.426 162.115 585.473 119.354 520.602 119.354C455.732 119.354 418.802 160.657 418.802 225.528C418.802 278.614 439.454 319.918 479.299 371.486H479.299Z" fill="var(--fill-0, white)"/>
</svg>
