<svg preserveAspectRatio="none" width="100%" height="100%" overflow="visible" style="display: block;" viewBox="0 0 929.422 864.551" fill="none" xmlns="http://www.w3.org/2000/svg">
<path id="CUPS_&#38;_CAKES_LOGO_2026_UPDATE_16" opacity="0.1" d="M0 607.896C0 472.1 92.2236 394.862 213.136 361.247C183.216 312.647 165.767 267.792 165.767 215.496C165.767 93.4039 257.99 0 433.559 0C574.384 0 657.832 79.7526 657.832 190.606C657.832 301.459 586.804 358.784 461.016 383.675C463.428 387.37 467.226 391.116 470.972 394.862L604.253 577.975L610.463 587.983C650.339 543.128 685.237 493.296 705.201 448.442H624.165V341.335H929.422V448.442H854.648C799.888 528.194 743.795 600.454 675.281 671.482C705.201 703.865 730.04 717.568 761.192 717.568C809.793 717.568 814.771 697.604 814.771 659.011V617.852H929.422V676.409C929.422 807.226 869.685 864.551 735.07 864.551C661.63 864.551 603.073 842.124 537.074 781.052C468.509 830.885 388.756 864.551 300.33 864.551C96.0215 864.551 0.051342 754.878 0.051342 607.896H0ZM464.711 702.583C448.596 682.67 432.328 662.706 416.11 639.047L311.518 497.042C294.069 474.616 277.851 453.42 262.917 432.275C213.085 464.659 178.238 514.491 178.238 584.237C178.238 678.923 242.953 739.995 338.924 739.995C383.778 739.995 426.169 725.01 464.711 702.634V702.583ZM404.973 313.878C480.929 293.966 523.371 257.836 523.371 189.323C523.371 136.975 494.683 100.845 439.872 100.845C385.061 100.845 353.858 135.744 353.858 190.554C353.858 235.409 371.307 270.307 404.973 313.878Z" fill="var(--fill-0, white)"/>
</svg>
